<svg width="174" height="50" viewbox="0 0 174 50" preserveAspectRatio="xMidYMid meet" xmlns="http://www.w3.org/2000/svg" xmlns:svg="http://www.w3.org/2000/svg">
  <g>
    <title>Layer 1</title>
    <g id="svg_1">
      <g id="svg_2" transform="translate(106.836, 133.084) scale(1)" fill="rgb(255, 255, 255)">
        <path id="svg_3" d="m-74.564453,-133.083984l-5.730469,0l-5.519531,23.238281l-4.886719,-4.886719l-4.886719,4.886719l-5.519531,-23.238281l-5.730469,0l11.953125,50.167969l8.367188,0l11.953125,-50.167969zm-16.136719,43.699219l-3.375,-14.097656l3.375,-3.375l3.375,3.375l-3.375,14.097656zm51.530029,-43.699219l-30.656219,0l0,50.167969l30.656219,0l0,-5.589844l-25.066376,0l0,-27.84375l19.511688,0l0,-5.589844l-19.511688,0l0,-5.589844l25.066376,0l0,-5.554688zm35.393372,0l-5.554688,0l0,18.351563l-18.386719,-18.351563l-6.714844,0l0,50.167969l5.589844,0l0,-29.496094l19.511719,19.511719l0,9.984375l5.554688,0l0,-50.167969zm-5.554688,32.273438l-19.511719,-19.511719l0,-6.046875l19.511719,19.511719l0,6.046875zm40.947998,-32.273438l-5.554688,0l0,25.066406l0,0q0,8.085938 -5.730469,13.816406l0,0l0,0q-5.730469,5.695313 -13.78125,5.695313l0,0l-5.589844,0l0,5.589844l5.589844,0l0,0q10.371094,0 17.71875,-7.347656l0,0l0,0q7.347656,-7.347656 7.347656,-17.753906l0,0l0,-25.066406zm10.326965,39.023438l0,-5.589844l19.511719,0l0,5.589844l-19.511719,0zm9.738281,-33.46875l0,0q4.042969,0 6.890625,2.882813l0,0l0,0q2.882813,2.847656 2.882813,6.890625l0,0l0,12.550781l-19.511719,0l0,-12.550781l0,0q0,-4.042969 2.847656,-6.890625l0,0l0,0q2.847656,-2.882813 6.890625,-2.882813l0,0zm0,-5.554688l0,0q-6.328125,0 -10.828125,4.5l0,0l0,0q-4.5,4.5 -4.5,10.828125l0,0l0,34.839844l5.589844,0l0,-5.589844l19.511719,0l0,5.589844l5.554688,0l0,-34.839844l0,0q0,-6.328125 -4.5,-10.828125l0,0l0,0q-4.5,-4.5 -10.828125,-4.5l0,0z" fill-rule="nonzero"/>
      </g>
    </g>
  </g>
</svg>
